<svg width="18" height="18" viewBox="0 0 18 18" fill="none" xmlns="http://www.w3.org/2000/svg">
<g clip-path="url(#clip0_1_731)">
<path d="M16.9162 10.2465L15.4912 5.11951C15.0735 3.61751 14.1657 2.29823 12.9122 1.37136C11.6586 0.444502 10.1312 -0.0367482 8.57277 0.00411186C7.01431 0.0449719 5.51423 0.605597 4.31097 1.59687C3.10771 2.58815 2.27033 3.95319 1.93193 5.47501L0.828675 10.4363C0.706812 10.9845 0.709629 11.553 0.83692 12.1C0.96421 12.647 1.21272 13.1584 1.56411 13.5964C1.9155 14.0345 2.36079 14.388 2.86711 14.631C3.37343 14.8739 3.92784 15 4.48943 15H5.32492C5.49706 15.8477 5.95697 16.6099 6.62673 17.1573C7.29649 17.7047 8.13491 18.0038 8.99992 18.0038C9.86494 18.0038 10.7034 17.7047 11.3731 17.1573C12.0429 16.6099 12.5028 15.8477 12.6749 15H13.3034C13.8815 15.0001 14.4518 14.8664 14.9697 14.6096C15.4877 14.3527 15.9392 13.9796 16.289 13.5194C16.6389 13.0592 16.8776 12.5243 16.9865 11.9565C17.0954 11.3888 17.0716 10.8035 16.9169 10.2465H16.9162ZM8.99992 16.5C8.53623 16.4981 8.08445 16.3529 7.7064 16.0844C7.32835 15.8159 7.04249 15.4372 6.88792 15H11.1119C10.9574 15.4372 10.6715 15.8159 10.2934 16.0844C9.9154 16.3529 9.46362 16.4981 8.99992 16.5ZM15.0944 12.6113C14.8854 12.8885 14.6147 13.1132 14.3036 13.2675C13.9926 13.4218 13.6499 13.5014 13.3027 13.5H4.48943C4.15251 13.5 3.81992 13.4242 3.51618 13.2784C3.21245 13.1327 2.94533 12.9205 2.73455 12.6577C2.52376 12.3949 2.3747 12.088 2.29835 11.7599C2.222 11.4318 2.22032 11.0906 2.29343 10.7618L3.39593 5.79976C3.66169 4.60442 4.31941 3.53222 5.26452 2.7536C6.20963 1.97498 7.38789 1.53464 8.61201 1.50257C9.83612 1.4705 11.0358 1.84855 12.0204 2.57661C13.005 3.30468 13.7179 4.34097 14.0459 5.52076L15.4709 10.6478C15.5651 10.9818 15.5801 11.3332 15.5147 11.674C15.4494 12.0148 15.3055 12.3358 15.0944 12.6113Z" fill="#156064"/>
</g>
<defs>
<clipPath id="clip0_1_731">
<rect width="18" height="18" fill="white"/>
</clipPath>
</defs>
</svg>
