<svg width="32" height="32" viewBox="0 0 32 32" fill="none" xmlns="http://www.w3.org/2000/svg">
<g clip-path="url(#clip0_55_183)">
<path d="M30.6544 3.71385C30.4134 3.47363 30.0869 3.33875 29.7465 3.33875C29.4062 3.33875 29.0797 3.47363 28.8386 3.71385L22.7893 9.7632L22.3829 9.36575C21.3116 8.31938 19.9054 7.68464 18.412 7.57338C16.9186 7.46211 15.4339 7.88145 14.2193 8.75752C12.4664 10.0794 10.5179 11.1196 8.44425 11.8406L5.81067 12.6126C4.95489 12.8639 4.16111 13.2913 3.48034 13.8675C2.79958 14.4438 2.24688 15.156 1.85777 15.9586C1.47505 16.7502 1.26189 17.6131 1.23194 18.4919C1.20198 19.3707 1.35589 20.2461 1.6838 21.0619C2.92666 24.113 5.05732 26.7204 7.7996 28.5461C10.5419 30.3719 13.7694 31.3319 17.0637 31.3016H18.237C18.4995 31.3015 18.7557 31.2208 18.971 31.0705C21.2061 29.6116 23.1163 27.7074 24.5823 25.4769C26.0483 23.2464 27.0386 20.7376 27.4914 18.1071C27.6488 17.1013 27.5635 16.0724 27.2426 15.1062C26.9216 14.1401 26.3743 13.2646 25.6463 12.553L24.6305 11.5574L30.6583 5.52967C30.898 5.28807 31.0322 4.96132 31.0315 4.62097C31.0307 4.28063 30.8952 3.95444 30.6544 3.71385V3.71385ZM17.8205 28.729H17.0586C15.1824 28.7316 13.3239 28.3662 11.5883 27.6535L11.6023 27.6459C13.823 26.5316 15.7242 24.8712 17.1272 22.8206L17.785 21.8543C17.9766 21.5731 18.0486 21.2273 17.9853 20.8929C17.922 20.5586 17.7284 20.2631 17.4472 20.0715C17.166 19.8799 16.8202 19.8078 16.4858 19.8711C16.1515 19.9345 15.856 20.128 15.6644 20.4093L15.0066 21.3756C13.8475 23.0664 12.2781 24.4353 10.4455 25.3539L8.85694 26.1539C7.58602 25.2605 6.4768 24.1569 5.57703 22.8905C7.65822 22.1903 9.55698 21.0346 11.135 19.5077C11.3785 19.2696 11.5174 18.9445 11.5212 18.604C11.525 18.2635 11.3934 17.9354 11.1553 17.6919C10.9172 17.4484 10.5921 17.3095 10.2516 17.3056C9.91106 17.3018 9.58296 17.4335 9.33947 17.6716C7.91841 19.0485 6.18404 20.0595 4.28564 20.6175C4.20818 20.4461 4.12437 20.2785 4.05453 20.102C3.85787 19.619 3.76581 19.0998 3.78441 18.5787C3.80301 18.0575 3.93186 17.5463 4.16247 17.0786C4.39592 16.5983 4.72701 16.172 5.13457 15.827C5.54213 15.482 6.01719 15.2258 6.52939 15.0748L9.1617 14.3028C10.6892 13.812 12.1504 13.1348 13.5121 12.2863L23.5626 22.079C22.2272 24.7373 20.2545 27.0237 17.8205 28.7341V28.729ZM24.9568 17.7033C24.8598 18.2974 24.7287 18.8854 24.5645 19.4645L15.7126 10.8438C16.362 10.3771 17.1414 10.1257 17.9411 10.1251C18.9304 10.1238 19.8807 10.511 20.5874 11.2032L23.8496 14.3891C24.2851 14.8143 24.6127 15.3373 24.8053 15.9146C24.9979 16.4919 25.0499 17.1069 24.9568 17.7084V17.7033Z" fill="#156064"/>
</g>
<defs>
<clipPath id="clip0_55_183">
<rect width="30.4754" height="30.4754" fill="white" transform="translate(0.541016 0.812378)"/>
</clipPath>
</defs>
</svg>
